<?xml version="1.0" encoding="UTF-8" standalone="no"?>
<!-- Created with Inkscape (http://www.inkscape.org/) -->

<svg
   version="1.1"
   id="svg1"
   width="240.00002mm"
   height="240.00002mm"
   viewBox="0 0 907.08667 907.08667"
   sodipodi:docname="button.svg"
   inkscape:version="1.3 (0e150ed, 2023-07-21)"
   xmlns:inkscape="http://www.inkscape.org/namespaces/inkscape"
   xmlns:sodipodi="http://sodipodi.sourceforge.net/DTD/sodipodi-0.dtd"
   xmlns="http://www.w3.org/2000/svg"
   xmlns:svg="http://www.w3.org/2000/svg">
  <defs
     id="defs1">
    <clipPath
       clipPathUnits="userSpaceOnUse"
       id="clipPath2">
      <path
         d="M 0,680.315 H 680.315 V 0 H 0 Z"
         transform="translate(-85.230205,-493.88611)"
         id="path2" />
    </clipPath>
    <clipPath
       clipPathUnits="userSpaceOnUse"
       id="clipPath4">
      <path
         d="M 0,680.315 H 680.315 V 0 H 0 Z"
         transform="translate(-600.75401,-484.06661)"
         id="path4" />
    </clipPath>
    <clipPath
       clipPathUnits="userSpaceOnUse"
       id="clipPath6">
      <path
         d="M 0,680.315 H 680.315 V 0 H 0 Z"
         transform="translate(-334.48821,-42.519704)"
         id="path6" />
    </clipPath>
    <clipPath
       clipPathUnits="userSpaceOnUse"
       id="clipPath8">
      <path
         d="M 0,680.315 H 680.315 V 0 H 0 Z"
         transform="translate(-680.31491,-340.15751)"
         id="path8" />
    </clipPath>
    <clipPath
       clipPathUnits="userSpaceOnUse"
       id="clipPath10">
      <path
         d="M 0,680.315 H 680.315 V 0 H 0 Z"
         transform="translate(-322.15751,-362.63621)"
         id="path10" />
    </clipPath>
    <clipPath
       clipPathUnits="userSpaceOnUse"
       id="clipPath12">
      <path
         d="M 0,680.315 H 680.315 V 0 H 0 Z"
         transform="translate(-318.55751,-366.23621)"
         id="path12" />
    </clipPath>
    <clipPath
       clipPathUnits="userSpaceOnUse"
       id="clipPath14">
      <path
         d="M 0,680.315 H 680.315 V 0 H 0 Z"
         transform="translate(-365.35751,-362.63621)"
         id="path14" />
    </clipPath>
    <clipPath
       clipPathUnits="userSpaceOnUse"
       id="clipPath16">
      <path
         d="M 0,680.315 H 680.315 V 0 H 0 Z"
         transform="translate(-361.75751,-366.23621)"
         id="path16" />
    </clipPath>
    <clipPath
       clipPathUnits="userSpaceOnUse"
       id="clipPath18">
      <path
         d="M 0,680.315 H 680.315 V 0 H 0 Z"
         transform="translate(-322.15751,-297.83621)"
         id="path18" />
    </clipPath>
    <clipPath
       clipPathUnits="userSpaceOnUse"
       id="clipPath20">
      <path
         d="M 0,680.315 H 680.315 V 0 H 0 Z"
         transform="translate(-318.55751,-301.43621)"
         id="path20" />
    </clipPath>
    <clipPath
       clipPathUnits="userSpaceOnUse"
       id="clipPath22">
      <path
         d="M 0,680.315 H 680.315 V 0 H 0 Z"
         transform="translate(-365.35751,-297.83621)"
         id="path22" />
    </clipPath>
    <clipPath
       clipPathUnits="userSpaceOnUse"
       id="clipPath24">
      <path
         d="M 0,680.315 H 680.315 V 0 H 0 Z"
         transform="translate(-361.75751,-301.43621)"
         id="path24" />
    </clipPath>
    <clipPath
       clipPathUnits="userSpaceOnUse"
       id="clipPath26">
      <path
         d="M 0,680.315 H 680.315 V 0 H 0 Z"
         transform="translate(-351.49611,-292.14431)"
         id="path26" />
    </clipPath>
    <clipPath
       clipPathUnits="userSpaceOnUse"
       id="clipPath28">
      <path
         d="M 0,680.315 H 680.315 V 0 H 0 Z"
         id="path28" />
    </clipPath>
    <clipPath
       clipPathUnits="userSpaceOnUse"
       id="clipPath30">
      <path
         d="M 0,680.315 H 680.315 V 0 H 0 Z"
         transform="translate(-361.75751,-290.63621)"
         id="path30" />
    </clipPath>
    <clipPath
       clipPathUnits="userSpaceOnUse"
       id="clipPath32">
      <path
         d="M 0,680.315 H 680.315 V 0 H 0 Z"
         transform="translate(-350.95751,-321.59621)"
         id="path32" />
    </clipPath>
    <clipPath
       clipPathUnits="userSpaceOnUse"
       id="clipPath34">
      <path
         d="M 0,680.315 H 680.315 V 0 H 0 Z"
         transform="translate(-322.15751,-362.63621)"
         id="path34" />
    </clipPath>
    <clipPath
       clipPathUnits="userSpaceOnUse"
       id="clipPath36">
      <path
         d="M 0,680.315 H 680.315 V 0 H 0 Z"
         transform="translate(-365.35751,-362.63621)"
         id="path36" />
    </clipPath>
    <clipPath
       clipPathUnits="userSpaceOnUse"
       id="clipPath38">
      <path
         d="M 0,680.315 H 680.315 V 0 H 0 Z"
         transform="translate(-322.15751,-297.83621)"
         id="path38" />
    </clipPath>
    <clipPath
       clipPathUnits="userSpaceOnUse"
       id="clipPath40">
      <path
         d="M 0,680.315 H 680.315 V 0 H 0 Z"
         transform="translate(-365.35751,-297.83621)"
         id="path40" />
    </clipPath>
    <clipPath
       clipPathUnits="userSpaceOnUse"
       id="clipPath42">
      <path
         d="M 0,680.315 H 680.315 V 0 H 0 Z"
         transform="translate(-345.91751,-296.39621)"
         id="path42" />
    </clipPath>
    <clipPath
       clipPathUnits="userSpaceOnUse"
       id="clipPath44">
      <path
         d="M 0,680.315 H 680.315 V 0 H 0 Z"
         transform="translate(-353.11751,-296.39621)"
         id="path44" />
    </clipPath>
    <clipPath
       clipPathUnits="userSpaceOnUse"
       id="clipPath46">
      <path
         d="M 0,680.315 H 680.315 V 0 H 0 Z"
         transform="translate(-338.71751,-296.39621)"
         id="path46" />
    </clipPath>
    <clipPath
       clipPathUnits="userSpaceOnUse"
       id="clipPath48">
      <path
         d="M 0,680.315 H 680.315 V 0 H 0 Z"
         transform="translate(-331.51751,-296.39621)"
         id="path48" />
    </clipPath>
  </defs>
  <sodipodi:namedview
     id="namedview1"
     pagecolor="#ffffff"
     bordercolor="#666666"
     borderopacity="1.0"
     inkscape:showpageshadow="2"
     inkscape:pageopacity="0.0"
     inkscape:pagecheckerboard="0"
     inkscape:deskcolor="#d1d1d1"
     inkscape:document-units="mm"
     inkscape:zoom="0.73588205"
     inkscape:cx="453.19763"
     inkscape:cy="453.87708"
     inkscape:window-width="1360"
     inkscape:window-height="887"
     inkscape:window-x="0"
     inkscape:window-y="25"
     inkscape:window-maximized="0"
     inkscape:current-layer="layer-MC0">
    <inkscape:page
       x="0"
       y="0"
       inkscape:label="1"
       id="page1"
       width="907.08667"
       height="907.08667"
       margin="0"
       bleed="0" />
  </sodipodi:namedview>
  <g
     id="layer-MC0"
     inkscape:groupmode="layer"
     inkscape:label="laser"
     transform="translate(-6.0104971e-6,-2.1338583e-5)">
    <path
       id="path1"
       d="M 0,0 C 2.712,-1.566 3.641,-5.033 2.075,-7.744 0.51,-10.456 -2.958,-11.385 -5.669,-9.82 -8.381,-8.254 -9.31,-4.787 -7.744,-2.075 -6.179,0.636 -2.712,1.566 0,0 Z"
       style="fill:none;stroke:#ff0613;stroke-width:1;stroke-linecap:butt;stroke-linejoin:miter;stroke-miterlimit:10;stroke-dasharray:none;stroke-opacity:1"
       transform="matrix(1.3333333,0,0,-1.3333333,113.64027,248.57187)"
       clip-path="url(#clipPath2)" />
    <path
       id="path3"
       d="M 0,0 C -2.712,-1.566 -6.179,-0.636 -7.744,2.075 -9.31,4.787 -8.381,8.254 -5.669,9.82 -2.958,11.385 0.51,10.456 2.075,7.744 3.641,5.033 2.712,1.566 0,0 Z"
       style="fill:none;stroke:#ff0613;stroke-width:1;stroke-linecap:butt;stroke-linejoin:miter;stroke-miterlimit:10;stroke-dasharray:none;stroke-opacity:1"
       transform="matrix(1.3333333,0,0,-1.3333333,801.00533,261.66453)"
       clip-path="url(#clipPath4)" />
    <path
       id="path5"
       d="M 0,0 C 0,3.131 2.538,5.669 5.669,5.669 8.8,5.669 11.339,3.131 11.339,0 11.339,-3.131 8.8,-5.669 5.669,-5.669 2.538,-5.669 0,-3.131 0,0 Z"
       style="fill:none;stroke:#ff0613;stroke-width:1;stroke-linecap:butt;stroke-linejoin:miter;stroke-miterlimit:10;stroke-dasharray:none;stroke-opacity:1"
       transform="matrix(1.3333333,0,0,-1.3333333,445.98427,850.39373)"
       clip-path="url(#clipPath6)" />
    <path
       id="path7"
       d="m 0,0 c 0,-187.864 -152.294,-340.157 -340.157,-340.157 -187.864,0 -340.158,152.293 -340.158,340.157 0,187.864 152.294,340.157 340.158,340.157 C -152.294,340.157 0,187.864 0,0 Z"
       style="fill:none;stroke:#ff0000;stroke-width:1;stroke-linecap:butt;stroke-linejoin:miter;stroke-miterlimit:10;stroke-dasharray:none;stroke-opacity:1"
       transform="matrix(1.3333333,0,0,-1.3333333,907.08653,453.54333)"
       clip-path="url(#clipPath8)" />
    <path
       id="path9"
       d="M 0,0 H -7.2"
       style="fill:none;stroke:#0000ff;stroke-width:0.709;stroke-linecap:butt;stroke-linejoin:miter;stroke-miterlimit:10;stroke-dasharray:none;stroke-opacity:1"
       transform="matrix(1.3333333,0,0,-1.3333333,429.54333,423.57173)"
       clip-path="url(#clipPath10)" />
    <path
       id="path11"
       d="M 0,0 V -7.2"
       style="fill:none;stroke:#0000ff;stroke-width:0.709;stroke-linecap:butt;stroke-linejoin:miter;stroke-miterlimit:10;stroke-dasharray:none;stroke-opacity:1"
       transform="matrix(1.3333333,0,0,-1.3333333,424.74333,418.77173)"
       clip-path="url(#clipPath12)" />
    <path
       id="path13"
       d="M 0,0 H -7.2"
       style="fill:none;stroke:#0000ff;stroke-width:0.709;stroke-linecap:butt;stroke-linejoin:miter;stroke-miterlimit:10;stroke-dasharray:none;stroke-opacity:1"
       transform="matrix(1.3333333,0,0,-1.3333333,487.14333,423.57173)"
       clip-path="url(#clipPath14)" />
    <path
       id="path15"
       d="M 0,0 V -7.2"
       style="fill:none;stroke:#0000ff;stroke-width:0.709;stroke-linecap:butt;stroke-linejoin:miter;stroke-miterlimit:10;stroke-dasharray:none;stroke-opacity:1"
       transform="matrix(1.3333333,0,0,-1.3333333,482.34333,418.77173)"
       clip-path="url(#clipPath16)" />
    <path
       id="path17"
       d="M 0,0 H -7.2"
       style="fill:none;stroke:#0000ff;stroke-width:0.709;stroke-linecap:butt;stroke-linejoin:miter;stroke-miterlimit:10;stroke-dasharray:none;stroke-opacity:1"
       transform="matrix(1.3333333,0,0,-1.3333333,429.54333,509.97173)"
       clip-path="url(#clipPath18)" />
    <path
       id="path19"
       d="M 0,0 V -7.2"
       style="fill:none;stroke:#0000ff;stroke-width:0.709;stroke-linecap:butt;stroke-linejoin:miter;stroke-miterlimit:10;stroke-dasharray:none;stroke-opacity:1"
       transform="matrix(1.3333333,0,0,-1.3333333,424.74333,505.17173)"
       clip-path="url(#clipPath20)" />
    <path
       id="path21"
       d="M 0,0 H -7.2"
       style="fill:none;stroke:#0000ff;stroke-width:0.709;stroke-linecap:butt;stroke-linejoin:miter;stroke-miterlimit:10;stroke-dasharray:none;stroke-opacity:1"
       transform="matrix(1.3333333,0,0,-1.3333333,487.14333,509.97173)"
       clip-path="url(#clipPath22)" />
    <path
       id="path23"
       d="M 0,0 V -7.2"
       style="fill:none;stroke:#0000ff;stroke-width:0.709;stroke-linecap:butt;stroke-linejoin:miter;stroke-miterlimit:10;stroke-dasharray:none;stroke-opacity:1"
       transform="matrix(1.3333333,0,0,-1.3333333,482.34333,505.17173)"
       clip-path="url(#clipPath24)" />
    <path
       id="path25"
       d="m 0,0 h -22.677 c -2.348,0 -4.252,1.904 -4.252,4.252 0,2.348 1.904,4.252 4.252,4.252 H 0 C 2.348,8.504 4.252,6.6 4.252,4.252 4.252,1.904 2.348,0 0,0 Z"
       style="fill:none;stroke:#0000ff;stroke-width:0.709;stroke-linecap:butt;stroke-linejoin:miter;stroke-miterlimit:10;stroke-dasharray:none;stroke-opacity:1"
       transform="matrix(1.3333333,0,0,-1.3333333,468.66147,517.56093)"
       clip-path="url(#clipPath26)" />
    <path
       id="path27"
       d="M 473.386,199.843 H 206.929 v 131.811 h 266.457 z m 150.236,131.811 v 17.007 H 348.661 V 480.472 H 552.756 V 497.48 H 348.661 V 623.622 H 331.654 V 497.48 H 127.559 V 480.472 H 331.654 V 348.661 H 56.693 V 331.654 H 189.921 V 199.843 H 127.559 V 182.835 H 331.654 V 85.039 h 17.007 v 97.796 h 204.095 v 17.008 h -62.362 v 131.811 z"
       style="fill:none;stroke:#0000ff;stroke-width:0.709;stroke-linecap:butt;stroke-linejoin:miter;stroke-miterlimit:10;stroke-dasharray:none;stroke-opacity:1"
       transform="matrix(1.3333333,0,0,-1.3333333,0,907.08667)"
       clip-path="url(#clipPath28)" />
  </g>
  <g
     id="layer-MC1"
     inkscape:groupmode="layer"
     inkscape:label="temp"
     style="display:none"
     transform="translate(-6.0104971e-6,-2.1338583e-5)">
    <path
       id="path29"
       d="m 0,0 h -43.2 c -3.976,0 -7.2,3.224 -7.2,7.2 V 72 c 0,3.976 3.224,7.2 7.2,7.2 H 0 c 3.976,0 7.2,-3.224 7.2,-7.2 V 7.2 C 7.2,3.224 3.976,0 0,0 Z"
       style="fill:none;stroke:#0000ff;stroke-width:0.709;stroke-linecap:butt;stroke-linejoin:miter;stroke-miterlimit:10;stroke-dasharray:none;stroke-opacity:1"
       transform="matrix(1.3333333,0,0,-1.3333333,482.34333,519.57173)"
       clip-path="url(#clipPath30)" />
    <path
       id="path31"
       d="m 0,0 h -21.6 c -3.976,0 -7.2,3.224 -7.2,7.2 v 21.6 c 0,3.976 3.224,7.2 7.2,7.2 H 0 c 3.976,0 7.2,-3.224 7.2,-7.2 V 7.2 C 7.2,3.224 3.976,0 0,0 Z"
       style="fill:none;stroke:#0000ff;stroke-width:0.709;stroke-linecap:butt;stroke-linejoin:miter;stroke-miterlimit:10;stroke-dasharray:none;stroke-opacity:1"
       transform="matrix(1.3333333,0,0,-1.3333333,467.94333,478.29173)"
       clip-path="url(#clipPath32)" />
    <path
       id="path33"
       d="m 0,0 c 0,-1.988 -1.612,-3.6 -3.6,-3.6 -1.988,0 -3.6,1.612 -3.6,3.6 0,1.988 1.612,3.6 3.6,3.6 C -1.612,3.6 0,1.988 0,0 Z"
       style="fill:none;stroke:#0000ff;stroke-width:0.709;stroke-linecap:butt;stroke-linejoin:miter;stroke-miterlimit:10;stroke-dasharray:none;stroke-opacity:1"
       transform="matrix(1.3333333,0,0,-1.3333333,429.54333,423.57173)"
       clip-path="url(#clipPath34)" />
    <path
       id="path35"
       d="m 0,0 c 0,-1.988 -1.612,-3.6 -3.6,-3.6 -1.988,0 -3.6,1.612 -3.6,3.6 0,1.988 1.612,3.6 3.6,3.6 C -1.612,3.6 0,1.988 0,0 Z"
       style="fill:none;stroke:#0000ff;stroke-width:0.709;stroke-linecap:butt;stroke-linejoin:miter;stroke-miterlimit:10;stroke-dasharray:none;stroke-opacity:1"
       transform="matrix(1.3333333,0,0,-1.3333333,487.14333,423.57173)"
       clip-path="url(#clipPath36)" />
    <path
       id="path37"
       d="m 0,0 c 0,-1.988 -1.612,-3.6 -3.6,-3.6 -1.988,0 -3.6,1.612 -3.6,3.6 0,1.988 1.612,3.6 3.6,3.6 C -1.612,3.6 0,1.988 0,0 Z"
       style="fill:none;stroke:#0000ff;stroke-width:0.709;stroke-linecap:butt;stroke-linejoin:miter;stroke-miterlimit:10;stroke-dasharray:none;stroke-opacity:1"
       transform="matrix(1.3333333,0,0,-1.3333333,429.54333,509.97173)"
       clip-path="url(#clipPath38)" />
    <path
       id="path39"
       d="m 0,0 c 0,-1.988 -1.612,-3.6 -3.6,-3.6 -1.988,0 -3.6,1.612 -3.6,3.6 0,1.988 1.612,3.6 3.6,3.6 C -1.612,3.6 0,1.988 0,0 Z"
       style="fill:none;stroke:#0000ff;stroke-width:0.709;stroke-linecap:butt;stroke-linejoin:miter;stroke-miterlimit:10;stroke-dasharray:none;stroke-opacity:1"
       transform="matrix(1.3333333,0,0,-1.3333333,487.14333,509.97173)"
       clip-path="url(#clipPath40)" />
    <path
       id="path41"
       d="m 0,0 c 0,-1.193 -0.967,-2.16 -2.16,-2.16 -1.193,0 -2.16,0.967 -2.16,2.16 0,1.193 0.967,2.16 2.16,2.16 C -0.967,2.16 0,1.193 0,0 Z"
       style="fill:none;stroke:#0000ff;stroke-width:0.709;stroke-linecap:butt;stroke-linejoin:miter;stroke-miterlimit:10;stroke-dasharray:none;stroke-opacity:1"
       transform="matrix(1.3333333,0,0,-1.3333333,461.22333,511.89173)"
       clip-path="url(#clipPath42)" />
    <path
       id="path43"
       d="m 0,0 c 0,-1.193 -0.967,-2.16 -2.16,-2.16 -1.193,0 -2.16,0.967 -2.16,2.16 0,1.193 0.967,2.16 2.16,2.16 C -0.967,2.16 0,1.193 0,0 Z"
       style="fill:none;stroke:#0000ff;stroke-width:0.709;stroke-linecap:butt;stroke-linejoin:miter;stroke-miterlimit:10;stroke-dasharray:none;stroke-opacity:1"
       transform="matrix(1.3333333,0,0,-1.3333333,470.82333,511.89173)"
       clip-path="url(#clipPath44)" />
    <path
       id="path45"
       d="m 0,0 c 0,-1.193 -0.967,-2.16 -2.16,-2.16 -1.193,0 -2.16,0.967 -2.16,2.16 0,1.193 0.967,2.16 2.16,2.16 C -0.967,2.16 0,1.193 0,0 Z"
       style="fill:none;stroke:#0000ff;stroke-width:0.709;stroke-linecap:butt;stroke-linejoin:miter;stroke-miterlimit:10;stroke-dasharray:none;stroke-opacity:1"
       transform="matrix(1.3333333,0,0,-1.3333333,451.62333,511.89173)"
       clip-path="url(#clipPath46)" />
    <path
       id="path47"
       d="m 0,0 c 0,-1.193 -0.967,-2.16 -2.16,-2.16 -1.193,0 -2.16,0.967 -2.16,2.16 0,1.193 0.967,2.16 2.16,2.16 C -0.967,2.16 0,1.193 0,0 Z"
       style="fill:none;stroke:#0000ff;stroke-width:0.709;stroke-linecap:butt;stroke-linejoin:miter;stroke-miterlimit:10;stroke-dasharray:none;stroke-opacity:1"
       transform="matrix(1.3333333,0,0,-1.3333333,442.02333,511.89173)"
       clip-path="url(#clipPath48)" />
  </g>
</svg>
