<?xml version="1.0" encoding="UTF-8" standalone="no"?>
<!-- Created with Inkscape (http://www.inkscape.org/) -->

<svg
   version="1.1"
   id="svg1"
   width="46.000107mm"
   height="30.000011mm"
   viewBox="0 0 173.85867 113.38587"
   sodipodi:docname="button-sup.svg"
   inkscape:version="1.3 (0e150ed, 2023-07-21)"
   xmlns:inkscape="http://www.inkscape.org/namespaces/inkscape"
   xmlns:sodipodi="http://sodipodi.sourceforge.net/DTD/sodipodi-0.dtd"
   xmlns="http://www.w3.org/2000/svg"
   xmlns:svg="http://www.w3.org/2000/svg">
  <defs
     id="defs1">
    <clipPath
       clipPathUnits="userSpaceOnUse"
       id="clipPath2">
      <path
         d="M 0,85.039 H 130.394 V 0 H 0 Z"
         transform="translate(-42.519701,-5.8564026)"
         id="path2" />
    </clipPath>
    <clipPath
       clipPathUnits="userSpaceOnUse"
       id="clipPath4">
      <path
         d="M 0,85.039 H 130.394 V 0 H 0 Z"
         transform="translate(-13.8331,-74.931002)"
         id="path4" />
    </clipPath>
    <clipPath
       clipPathUnits="userSpaceOnUse"
       id="clipPath6">
      <path
         d="M 0,85.039 H 130.394 V 0 H 0 Z"
         transform="translate(-57.033101,-74.931002)"
         id="path6" />
    </clipPath>
    <clipPath
       clipPathUnits="userSpaceOnUse"
       id="clipPath8">
      <path
         d="M 0,85.039 H 130.394 V 0 H 0 Z"
         transform="translate(-13.8331,-10.131)"
         id="path8" />
    </clipPath>
    <clipPath
       clipPathUnits="userSpaceOnUse"
       id="clipPath10">
      <path
         d="M 0,85.039 H 130.394 V 0 H 0 Z"
         transform="translate(-57.033101,-10.131)"
         id="path10" />
    </clipPath>
    <clipPath
       clipPathUnits="userSpaceOnUse"
       id="clipPath12">
      <path
         d="M 0,85.039 H 130.394 V 0 H 0 Z"
         transform="translate(-52.724401,-0.56690001)"
         id="path12" />
    </clipPath>
    <clipPath
       clipPathUnits="userSpaceOnUse"
       id="clipPath14">
      <path
         d="M 0,85.039 H 130.394 V 0 H 0 Z"
         transform="translate(-22.677201,-84.472502)"
         id="path14" />
    </clipPath>
    <clipPath
       clipPathUnits="userSpaceOnUse"
       id="clipPath16">
      <path
         d="M 0,85.039 H 130.394 V 0 H 0 Z"
         transform="translate(-62.362202,-60.956202)"
         id="path16" />
    </clipPath>
    <clipPath
       clipPathUnits="userSpaceOnUse"
       id="clipPath18">
      <path
         d="M 0,85.039 H 130.394 V 0 H 0 Z"
         transform="translate(0,-43.948301)"
         id="path18" />
    </clipPath>
    <clipPath
       clipPathUnits="userSpaceOnUse"
       id="clipPath20">
      <path
         d="M 0,85.039 H 130.394 V 0 H 0 Z"
         transform="translate(-110.5519,-5.8564026)"
         id="path20" />
    </clipPath>
    <clipPath
       clipPathUnits="userSpaceOnUse"
       id="clipPath22">
      <path
         d="M 0,85.039 H 130.394 V 0 H 0 Z"
         transform="translate(-81.8653,-74.931002)"
         id="path22" />
    </clipPath>
    <clipPath
       clipPathUnits="userSpaceOnUse"
       id="clipPath24">
      <path
         d="M 0,85.039 H 130.394 V 0 H 0 Z"
         transform="translate(-125.0653,-74.931002)"
         id="path24" />
    </clipPath>
    <clipPath
       clipPathUnits="userSpaceOnUse"
       id="clipPath26">
      <path
         d="M 0,85.039 H 130.394 V 0 H 0 Z"
         transform="translate(-81.8653,-10.131)"
         id="path26" />
    </clipPath>
    <clipPath
       clipPathUnits="userSpaceOnUse"
       id="clipPath28">
      <path
         d="M 0,85.039 H 130.394 V 0 H 0 Z"
         transform="translate(-125.0653,-10.131)"
         id="path28" />
    </clipPath>
    <clipPath
       clipPathUnits="userSpaceOnUse"
       id="clipPath30">
      <path
         d="M 0,85.039 H 130.394 V 0 H 0 Z"
         transform="translate(-120.7566,-0.56690001)"
         id="path30" />
    </clipPath>
    <clipPath
       clipPathUnits="userSpaceOnUse"
       id="clipPath32">
      <path
         d="M 0,85.039 H 130.394 V 0 H 0 Z"
         transform="translate(-90.709405,-84.472502)"
         id="path32" />
    </clipPath>
    <clipPath
       clipPathUnits="userSpaceOnUse"
       id="clipPath34">
      <path
         d="M 0,85.039 H 130.394 V 0 H 0 Z"
         transform="translate(-130.3944,-60.956202)"
         id="path34" />
    </clipPath>
    <clipPath
       clipPathUnits="userSpaceOnUse"
       id="clipPath36">
      <path
         d="M 0,85.039 H 130.394 V 0 H 0 Z"
         transform="translate(-68.032202,-43.948301)"
         id="path36" />
    </clipPath>
  </defs>
  <sodipodi:namedview
     id="namedview1"
     pagecolor="#ffffff"
     bordercolor="#666666"
     borderopacity="1.0"
     inkscape:showpageshadow="2"
     inkscape:pageopacity="0.0"
     inkscape:pagecheckerboard="0"
     inkscape:deskcolor="#d1d1d1"
     inkscape:document-units="mm"
     inkscape:zoom="2.081388"
     inkscape:cx="86.720975"
     inkscape:cy="56.933161"
     inkscape:window-width="856"
     inkscape:window-height="480"
     inkscape:window-x="48"
     inkscape:window-y="45"
     inkscape:window-maximized="0"
     inkscape:current-layer="layer-MC0">
    <inkscape:page
       x="0"
       y="0"
       inkscape:label="2"
       id="page1"
       width="173.85867"
       height="113.38586"
       margin="0.28344667 0 0.28346667"
       bleed="0" />
  </sodipodi:namedview>
  <g
     id="layer-MC0"
     inkscape:groupmode="layer"
     inkscape:label="laser">
    <path
       id="path1"
       d="m 0,0 h -22.677 c -1.566,0 -2.835,1.269 -2.835,2.835 v 0 c 0,1.565 1.269,2.834 2.835,2.834 L 0,5.669 c 1.566,0 2.835,-1.269 2.835,-2.834 v 0 C 2.835,1.269 1.566,0 0,0 Z"
       style="fill:none;stroke:#ff0000;stroke-width:0.709;stroke-linecap:butt;stroke-linejoin:miter;stroke-miterlimit:10;stroke-dasharray:none;stroke-opacity:1"
       transform="matrix(1.3333333,0,0,-1.3333333,56.692933,105.57733)"
       clip-path="url(#clipPath2)" />
    <path
       id="path3"
       d="m 0,0 c 0,-2.348 -1.904,-4.252 -4.252,-4.252 -2.348,0 -4.252,1.904 -4.252,4.252 0,2.348 1.904,4.252 4.252,4.252 C -1.904,4.252 0,2.348 0,0 Z"
       style="fill:none;stroke:#ff0000;stroke-width:0.709;stroke-linecap:butt;stroke-linejoin:miter;stroke-miterlimit:10;stroke-dasharray:none;stroke-opacity:1"
       transform="matrix(1.3333333,0,0,-1.3333333,18.444133,13.477867)"
       clip-path="url(#clipPath4)" />
    <path
       id="path5"
       d="m 0,0 c 0,-2.348 -1.904,-4.252 -4.252,-4.252 -2.348,0 -4.252,1.904 -4.252,4.252 0,2.348 1.904,4.252 4.252,4.252 C -1.904,4.252 0,2.348 0,0 Z"
       style="fill:none;stroke:#ff0000;stroke-width:0.709;stroke-linecap:butt;stroke-linejoin:miter;stroke-miterlimit:10;stroke-dasharray:none;stroke-opacity:1"
       transform="matrix(1.3333333,0,0,-1.3333333,76.044133,13.477867)"
       clip-path="url(#clipPath6)" />
    <path
       id="path7"
       d="m 0,0 c 0,-2.348 -1.904,-4.252 -4.252,-4.252 -2.348,0 -4.252,1.904 -4.252,4.252 0,2.348 1.904,4.252 4.252,4.252 C -1.904,4.252 0,2.348 0,0 Z"
       style="fill:none;stroke:#ff0000;stroke-width:0.709;stroke-linecap:butt;stroke-linejoin:miter;stroke-miterlimit:10;stroke-dasharray:none;stroke-opacity:1"
       transform="matrix(1.3333333,0,0,-1.3333333,18.444133,99.877867)"
       clip-path="url(#clipPath8)" />
    <path
       id="path9"
       d="m 0,0 c 0,-2.348 -1.904,-4.252 -4.252,-4.252 -2.348,0 -4.252,1.904 -4.252,4.252 0,2.348 1.904,4.252 4.252,4.252 C -1.904,4.252 0,2.348 0,0 Z"
       style="fill:none;stroke:#ff0000;stroke-width:0.709;stroke-linecap:butt;stroke-linejoin:miter;stroke-miterlimit:10;stroke-dasharray:none;stroke-opacity:1"
       transform="matrix(1.3333333,0,0,-1.3333333,76.044133,99.877867)"
       clip-path="url(#clipPath10)" />
    <path
       id="path11"
       d="m 0,0 h -43.087 c -5.322,0 -9.637,4.315 -9.637,9.638 v 64.63 c 0,5.323 4.315,9.638 9.637,9.638 H 0 c 5.323,0 9.638,-4.315 9.638,-9.638 V 9.638 C 9.638,4.315 5.323,0 0,0 Z"
       style="fill:none;stroke:#ff0000;stroke-width:0.709;stroke-linecap:butt;stroke-linejoin:miter;stroke-miterlimit:10;stroke-dasharray:none;stroke-opacity:1"
       transform="matrix(1.3333333,0,0,-1.3333333,70.2992,112.63)"
       clip-path="url(#clipPath12)" />
    <path
       id="path13"
       d="M 0,0 V -23.516 H -22.677"
       style="fill:none;stroke:#0000ff;stroke-width:0.709;stroke-linecap:butt;stroke-linejoin:miter;stroke-miterlimit:10;stroke-dasharray:none;stroke-opacity:1"
       transform="matrix(1.3333333,0,0,-1.3333333,30.236267,0.75586667)"
       clip-path="url(#clipPath14)" />
    <path
       id="path15"
       d="M 0,0 H -22.677 V 23.516"
       style="fill:none;stroke:#0000ff;stroke-width:0.709;stroke-linecap:butt;stroke-linejoin:miter;stroke-miterlimit:10;stroke-dasharray:none;stroke-opacity:1"
       transform="matrix(1.3333333,0,0,-1.3333333,83.1496,32.110933)"
       clip-path="url(#clipPath16)" />
    <path
       id="path17"
       d="M 0,0 H 62.362"
       style="fill:none;stroke:#0000ff;stroke-width:0.709;stroke-linecap:butt;stroke-linejoin:miter;stroke-miterlimit:10;stroke-dasharray:none;stroke-opacity:1"
       transform="matrix(1.3333333,0,0,-1.3333333,0,54.788133)"
       clip-path="url(#clipPath18)" />
    <path
       id="path19"
       d="m 0,0 h -22.677 c -1.566,0 -2.835,1.269 -2.835,2.835 v 0 c 0,1.565 1.269,2.834 2.835,2.834 L 0,5.669 c 1.566,0 2.835,-1.269 2.835,-2.834 v 0 C 2.835,1.269 1.566,0 0,0 Z"
       style="fill:none;stroke:#ff0000;stroke-width:0.709;stroke-linecap:butt;stroke-linejoin:miter;stroke-miterlimit:10;stroke-dasharray:none;stroke-opacity:1"
       transform="matrix(1.3333333,0,0,-1.3333333,147.40253,105.57733)"
       clip-path="url(#clipPath20)" />
    <path
       id="path21"
       d="m 0,0 c 0,-2.348 -1.904,-4.252 -4.252,-4.252 -2.348,0 -4.252,1.904 -4.252,4.252 0,2.348 1.904,4.252 4.252,4.252 C -1.904,4.252 0,2.348 0,0 Z"
       style="fill:none;stroke:#ff0000;stroke-width:0.709;stroke-linecap:butt;stroke-linejoin:miter;stroke-miterlimit:10;stroke-dasharray:none;stroke-opacity:1"
       transform="matrix(1.3333333,0,0,-1.3333333,109.15373,13.477867)"
       clip-path="url(#clipPath22)" />
    <path
       id="path23"
       d="m 0,0 c 0,-2.348 -1.904,-4.252 -4.252,-4.252 -2.348,0 -4.252,1.904 -4.252,4.252 0,2.348 1.904,4.252 4.252,4.252 C -1.904,4.252 0,2.348 0,0 Z"
       style="fill:none;stroke:#ff0000;stroke-width:0.709;stroke-linecap:butt;stroke-linejoin:miter;stroke-miterlimit:10;stroke-dasharray:none;stroke-opacity:1"
       transform="matrix(1.3333333,0,0,-1.3333333,166.75373,13.477867)"
       clip-path="url(#clipPath24)" />
    <path
       id="path25"
       d="m 0,0 c 0,-2.348 -1.904,-4.252 -4.252,-4.252 -2.348,0 -4.252,1.904 -4.252,4.252 0,2.348 1.904,4.252 4.252,4.252 C -1.904,4.252 0,2.348 0,0 Z"
       style="fill:none;stroke:#ff0000;stroke-width:0.709;stroke-linecap:butt;stroke-linejoin:miter;stroke-miterlimit:10;stroke-dasharray:none;stroke-opacity:1"
       transform="matrix(1.3333333,0,0,-1.3333333,109.15373,99.877867)"
       clip-path="url(#clipPath26)" />
    <path
       id="path27"
       d="m 0,0 c 0,-2.348 -1.904,-4.252 -4.252,-4.252 -2.348,0 -4.252,1.904 -4.252,4.252 0,2.348 1.904,4.252 4.252,4.252 C -1.904,4.252 0,2.348 0,0 Z"
       style="fill:none;stroke:#ff0000;stroke-width:0.709;stroke-linecap:butt;stroke-linejoin:miter;stroke-miterlimit:10;stroke-dasharray:none;stroke-opacity:1"
       transform="matrix(1.3333333,0,0,-1.3333333,166.75373,99.877867)"
       clip-path="url(#clipPath28)" />
    <path
       id="path29"
       d="m 0,0 h -43.087 c -5.322,0 -9.637,4.315 -9.637,9.638 v 64.63 c 0,5.323 4.315,9.638 9.637,9.638 H 0 c 5.323,0 9.638,-4.315 9.638,-9.638 V 9.638 C 9.638,4.315 5.323,0 0,0 Z"
       style="fill:none;stroke:#ff0000;stroke-width:0.709;stroke-linecap:butt;stroke-linejoin:miter;stroke-miterlimit:10;stroke-dasharray:none;stroke-opacity:1"
       transform="matrix(1.3333333,0,0,-1.3333333,161.0088,112.63)"
       clip-path="url(#clipPath30)" />
    <path
       id="path31"
       d="M 0,0 V -23.516 H -22.677"
       style="fill:none;stroke:#0000ff;stroke-width:0.709;stroke-linecap:butt;stroke-linejoin:miter;stroke-miterlimit:10;stroke-dasharray:none;stroke-opacity:1"
       transform="matrix(1.3333333,0,0,-1.3333333,120.94587,0.75586667)"
       clip-path="url(#clipPath32)" />
    <path
       id="path33"
       d="M 0,0 H -22.677 V 23.516"
       style="fill:none;stroke:#0000ff;stroke-width:0.709;stroke-linecap:butt;stroke-linejoin:miter;stroke-miterlimit:10;stroke-dasharray:none;stroke-opacity:1"
       transform="matrix(1.3333333,0,0,-1.3333333,173.8592,32.110933)"
       clip-path="url(#clipPath34)" />
    <path
       id="path35"
       d="M 0,0 H 62.362"
       style="fill:none;stroke:#0000ff;stroke-width:0.709;stroke-linecap:butt;stroke-linejoin:miter;stroke-miterlimit:10;stroke-dasharray:none;stroke-opacity:1"
       transform="matrix(1.3333333,0,0,-1.3333333,90.7096,54.788133)"
       clip-path="url(#clipPath36)" />
  </g>
  <g
     id="layer-MC1"
     inkscape:groupmode="layer"
     inkscape:label="temp"
     style="display:none" />
</svg>
