<?xml version="1.0" encoding="UTF-8"?>
<svg width="1870.9" height="944.88" version="1.1" viewBox="0 0 1870.9 944.88" xmlns="http://www.w3.org/2000/svg" xmlns:xlink="http://www.w3.org/1999/xlink">
 <defs>
  <clipPath id="clipPath2">
   <path transform="translate(-694.49 -354.33)" d="M 0,708.661 H 1403.15 V 0 H 0 Z"/>
  </clipPath>
  <clipPath id="clipPath4">
   <path transform="translate(-304.19 -400.02)" d="M 0,708.661 H 1403.15 V 0 H 0 Z"/>
  </clipPath>
  <clipPath id="clipPath6">
   <path transform="translate(-254.41 -377.64)" d="M 0,708.661 H 1403.15 V 0 H 0 Z"/>
  </clipPath>
  <clipPath id="clipPath8">
   <path transform="translate(-254.41 -383.09)" d="M 0,708.661 H 1403.15 V 0 H 0 Z"/>
  </clipPath>
  <clipPath id="clipPath10">
   <path transform="translate(-416.07 -365.25)" d="M 0,708.661 H 1403.15 V 0 H 0 Z"/>
  </clipPath>
  <clipPath id="clipPath12">
   <path transform="translate(-354.98 -210.19)" d="M 0,708.661 H 1403.15 V 0 H 0 Z"/>
  </clipPath>
  <clipPath id="clipPath14">
   <path transform="translate(-296.82 -207.82)" d="M 0,708.661 H 1403.15 V 0 H 0 Z"/>
  </clipPath>
  <clipPath id="clipPath16">
   <path transform="translate(-489.42 -323.11)" d="M 0,708.661 H 1403.15 V 0 H 0 Z"/>
  </clipPath>
  <clipPath id="clipPath18">
   <path transform="translate(-427.95 -302.23)" d="M 0,708.661 H 1403.15 V 0 H 0 Z"/>
  </clipPath>
  <clipPath id="clipPath20">
   <path transform="translate(-1389 -354.33)" d="M 0,708.661 H 1403.15 V 0 H 0 Z"/>
  </clipPath>
  <clipPath id="clipPath22">
   <path transform="translate(-1088.1 -535.98)" d="M 0,708.661 H 1403.15 V 0 H 0 Z"/>
  </clipPath>
  <clipPath id="clipPath24">
   <path transform="translate(-1123.4 -403.82)" d="M 0,708.661 H 1403.15 V 0 H 0 Z"/>
  </clipPath>
  <clipPath id="clipPath26">
   <path transform="translate(-1048.8 -562.47)" d="M 0,708.661 H 1403.15 V 0 H 0 Z"/>
  </clipPath>
  <clipPath id="clipPath28">
   <path transform="translate(-1311 -354.33)" d="M 0,708.661 H 1403.15 V 0 H 0 Z"/>
  </clipPath>
  <clipPath id="clipPath30">
   <path transform="translate(-878.74 -354.33)" d="M 0,708.661 H 1403.15 V 0 H 0 Z"/>
  </clipPath>
  <clipPath id="clipPath32">
   <path transform="translate(-928.56 -234.07)" d="M 0,708.661 H 1403.15 V 0 H 0 Z"/>
  </clipPath>
  <clipPath id="clipPath34">
   <path transform="translate(-1048.8 -184.25)" d="M 0,708.661 H 1403.15 V 0 H 0 Z"/>
  </clipPath>
  <clipPath id="clipPath36">
   <path transform="translate(-1169.1 -234.07)" d="M 0,708.661 H 1403.15 V 0 H 0 Z"/>
  </clipPath>
  <clipPath id="clipPath38">
   <path transform="translate(-97.986 -505.6)" d="M 0,708.661 H 1403.15 V 0 H 0 Z"/>
  </clipPath>
  <clipPath id="clipPath40">
   <path transform="translate(-613.51 -500.7)" d="M 0,708.661 H 1403.15 V 0 H 0 Z"/>
  </clipPath>
  <clipPath id="clipPath42">
   <path transform="translate(-351.5 -56.693)" d="M 0,708.661 H 1403.15 V 0 H 0 Z"/>
  </clipPath>
  <clipPath id="clipPath44">
   <path transform="translate(-792.47 -505.6)" d="M 0,708.661 H 1403.15 V 0 H 0 Z"/>
  </clipPath>
  <clipPath id="clipPath46">
   <path transform="translate(-1308 -500.7)" d="M 0,708.661 H 1403.15 V 0 H 0 Z"/>
  </clipPath>
  <clipPath id="clipPath48">
   <path transform="translate(-1046 -56.693)" d="M 0,708.661 H 1403.15 V 0 H 0 Z"/>
  </clipPath>
  <clipPath id="clipPath50">
   <path transform="translate(-609.45 -354.33)" d="m40.066 484.5c-17.094-41.268-25.893-85.503-25.893-130.17h340.16l-240.53 240.53c-31.586-31.587-56.643-69.087-73.737-110.36"/>
  </clipPath>
  <clipPath id="clipPath52">
   <path transform="translate(-559.84 -354.33)" d="m40.066 484.5c-17.094-41.268-25.893-85.503-25.893-130.17h340.16l-240.53 240.53c-31.586-31.587-56.643-69.087-73.737-110.36"/>
  </clipPath>
  <clipPath id="clipPath54">
   <path transform="translate(-701.57 -354.33)" d="M 0,708.661 H 1403.15 V 0 H 0 Z"/>
  </clipPath>
  <clipPath id="clipPath56">
   <path transform="translate(-304.19 -400.02)" d="M 0,708.661 H 1403.15 V 0 H 0 Z"/>
  </clipPath>
  <clipPath id="clipPath58">
   <path transform="translate(-527.4 -422.13)" d="M 0,708.661 H 1403.15 V 0 H 0 Z"/>
  </clipPath>
  <clipPath id="clipPath60">
   <path transform="translate(-1396.1 -354.33)" d="M 0,708.661 H 1403.15 V 0 H 0 Z"/>
  </clipPath>
  <clipPath id="clipPath62">
   <path transform="translate(-1088.1 -535.98)" d="M 0,708.661 H 1403.15 V 0 H 0 Z"/>
  </clipPath>
  <clipPath id="clipPath64">
   <path transform="translate(-1048.8 -562.47)" d="M 0,708.661 H 1403.15 V 0 H 0 Z"/>
  </clipPath>
  <clipPath id="clipPath66">
   <path d="M 0,708.661 H 1403.15 V 0 H 0 Z"/>
  </clipPath>
  <clipPath id="clipPath68">
   <path d="M 0,708.661 H 1403.15 V 0 H 0 Z"/>
  </clipPath>
  <clipPath id="clipPath70">
   <path transform="translate(-867.98 -164.35)" d="M 0,708.661 H 1403.15 V 0 H 0 Z"/>
  </clipPath>
  <clipPath id="clipPath72">
   <path d="M 0,708.661 H 1403.15 V 0 H 0 Z"/>
  </clipPath>
  <clipPath id="clipPath74">
   <path transform="translate(-1229.7 -164.35)" d="M 0,708.661 H 1403.15 V 0 H 0 Z"/>
  </clipPath>
  <clipPath id="clipPath76">
   <path transform="translate(-97.986 -505.6)" d="M 0,708.661 H 1403.15 V 0 H 0 Z"/>
  </clipPath>
  <clipPath id="clipPath78">
   <path transform="translate(-613.51 -500.7)" d="M 0,708.661 H 1403.15 V 0 H 0 Z"/>
  </clipPath>
  <clipPath id="clipPath80">
   <path transform="translate(-351.5 -56.693)" d="M 0,708.661 H 1403.15 V 0 H 0 Z"/>
  </clipPath>
  <clipPath id="clipPath82">
   <path transform="translate(-792.47 -505.6)" d="M 0,708.661 H 1403.15 V 0 H 0 Z"/>
  </clipPath>
  <clipPath id="clipPath84">
   <path transform="translate(-1308 -500.7)" d="M 0,708.661 H 1403.15 V 0 H 0 Z"/>
  </clipPath>
  <clipPath id="clipPath86">
   <path transform="translate(-1046 -56.693)" d="M 0,708.661 H 1403.15 V 0 H 0 Z"/>
  </clipPath>
  <clipPath id="clipPath88">
   <path transform="translate(-155.28 -354.33)" d="M 0,708.661 H 1403.15 V 0 H 0 Z"/>
  </clipPath>
  <clipPath id="clipPath90">
   <path transform="translate(-105.68 -354.33)" d="M 0,708.661 H 1403.15 V 0 H 0 Z"/>
  </clipPath>
  <clipPath id="clipPath92">
   <path transform="translate(-269.3 -354.33)" d="M 0,708.661 H 1403.15 V 0 H 0 Z"/>
  </clipPath>
  <clipPath id="clipPath94">
   <path transform="translate(-289.58 -311.44)" d="M 0,708.661 H 1403.15 V 0 H 0 Z"/>
  </clipPath>
  <clipPath id="clipPath96">
   <path transform="translate(-443.89 -302.23)" d="M 0,708.661 H 1403.15 V 0 H 0 Z"/>
  </clipPath>
  <clipPath id="clipPath98">
   <path transform="translate(-1138.9 -355.75)" d="M 0,708.661 H 1403.15 V 0 H 0 Z"/>
  </clipPath>
  <clipPath id="clipPath100">
   <path transform="translate(-971.63 -355.75)" d="M 0,708.661 H 1403.15 V 0 H 0 Z"/>
  </clipPath>
  <clipPath id="clipPath102">
   <path transform="translate(-1047.4 -275.91)" d="M 0,708.661 H 1403.15 V 0 H 0 Z"/>
  </clipPath>
  <clipPath id="clipPath104">
   <path transform="translate(-1126 -352.91)" d="M 0,708.661 H 1403.15 V 0 H 0 Z"/>
  </clipPath>
 </defs>
 <g display="none">
  <path transform="matrix(1.3333 0 0 -1.3333 925.98 472.44)" d="m0 0c0-187.86-152.29-340.16-340.16-340.16-187.86 0-340.16 152.29-340.16 340.16s152.29 340.16 340.16 340.16c187.86 0 340.16-152.29 340.16-340.16" clip-path="url(#clipPath2)" fill="#312783"/>
  <g fill="#fff">
   <path transform="matrix(1.3333 0 0 -1.3333 405.59 411.52)" d="m0 0c0-6.352-5.15-11.502-11.502-11.502s-11.502 5.15-11.502 11.502 5.15 11.502 11.502 11.502 11.502-5.15 11.502-11.502" clip-path="url(#clipPath4)"/>
   <path transform="matrix(1.3333 0 0 -1.3333 339.22 441.37)" d="m0 0-30.552 28.754h33.068z" clip-path="url(#clipPath6)"/>
   <path transform="matrix(1.3333 0 0 -1.3333 339.22 434.1)" d="m0 0-30.552-28.754h33.068z" clip-path="url(#clipPath8)"/>
   <path transform="matrix(1.3333 0 0 -1.3333 554.76 457.88)" d="m0 0 111.33 111.33v-54.454l-71.962-71.961h-40.989z" clip-path="url(#clipPath10)"/>
   <path transform="matrix(1.3333 0 0 -1.3333 473.31 664.63)" d="m0 0-9.149 9.149 76.441 76.44 9.149-9.148z" clip-path="url(#clipPath12)"/>
   <path transform="matrix(1.3333 0 0 -1.3333 395.76 667.78)" d="m0 0-9.149 9.149 54.724 54.723 9.148-9.149z" clip-path="url(#clipPath14)"/>
   <path transform="matrix(1.3333 0 0 -1.3333 652.56 514.07)" d="m0 0h-139.78l8.65 8.626h120.08l-12.549 9.795h-98.019l8.65 8.626h78.316l-73.112 57.06-53.741-53.498c-15.817-15.816-4.615-42.86 17.754-42.86h159.45z" clip-path="url(#clipPath16)"/>
   <path transform="matrix(1.3333 0 0 -1.3333 570.61 541.91)" d="m0 0c-15.856-19.778-39.807-31.514-65.964-31.514-33.131 0-59.712 21.937-72.406 40.724-6.448 9.542-27.329 43.611-25.296 81.409 1.35 25.119 16.34 39.525 41.129 39.525 14.628 0 26.91-4.635 42.394-15.998 40.224-29.523 46.044-34.841 46.188-34.972l9.091 9.208c-0.501 0.495-6.099 5.719-47.623 36.195-17.674 12.972-32.643 18.507-50.05 18.507-31.623 0-52.333-19.837-54.05-51.77-2.188-40.682 18.5-76.037 27.495-89.348 14.471-21.415 44.924-46.42 83.128-46.42 33.579 0 64.006 16.777 81.897 44.454z" clip-path="url(#clipPath18)"/>
  </g>
  <path transform="matrix(1.3333 0 0 -1.3333 1852 472.44)" d="m0 0c0-187.86-152.29-340.16-340.16-340.16-187.86 0-340.16 152.29-340.16 340.16s152.29 340.16 340.16 340.16c187.86 0 340.16-152.29 340.16-340.16" clip-path="url(#clipPath20)" fill="#312783"/>
  <g fill="#fff">
   <path transform="matrix(1.3333 0 0 -1.3333 1450.8 230.25)" d="m0 0h-78.606c-3.131 0-5.669-2.538-5.669-5.669v-45.972h89.944v45.972c0 3.131-2.538 5.669-5.669 5.669" clip-path="url(#clipPath22)"/>
   <path transform="matrix(1.3333 0 0 -1.3333 1497.8 406.45)" d="m0 0c-12.582 21.092-29.572 41.729-29.572 72.006h-12.925c0-57.521 45.189-73.322 45.189-122.72 0-42.587-34.647-77.235-77.235-77.235s-77.236 34.648-77.236 77.235c0 49.401 45.19 65.202 45.19 122.72h-12.927c0-30.277-16.99-50.914-29.571-72.006-9.853-14.452-15.617-31.908-15.617-50.717 0-49.8 40.369-90.16 90.16-90.16 49.792 0 90.161 40.36 90.161 90.16 0 18.809-5.764 36.265-15.617 50.717" clip-path="url(#clipPath24)"/>
   <path transform="matrix(1.3333 0 0 -1.3333 1398.4 194.92)" d="m0 0c-7.238 0-14.156-2.98-19.129-8.239l-9.22-9.75h56.698l-9.22 9.75c-4.973 5.259-11.891 8.239-19.129 8.239" clip-path="url(#clipPath26)"/>
  </g>
  <g fill="none" stroke-miterlimit="10">
   <g stroke="#fff" stroke-width="12.926">
    <path transform="matrix(1.3333 0 0 -1.3333 1748 472.44)" d="m0 0h-92.126" clip-path="url(#clipPath28)"/>
    <path transform="matrix(1.3333 0 0 -1.3333 1171.7 472.44)" d="m0 0h-92.126" clip-path="url(#clipPath30)"/>
    <path transform="matrix(1.3333 0 0 -1.3333 1238.1 632.79)" d="m0 0-65.143-65.143" clip-path="url(#clipPath32)"/>
    <path transform="matrix(1.3333 0 0 -1.3333 1398.4 699.21)" d="m0 0v-92.126" clip-path="url(#clipPath34)"/>
    <path transform="matrix(1.3333 0 0 -1.3333 1558.8 632.79)" d="m0 0 65.143-65.143" clip-path="url(#clipPath36)"/>
   </g>
   <g stroke="#e52521">
    <path transform="matrix(1.3333 0 0 -1.3333 130.65 270.74)" d="m0 0c1.356-0.783 1.82-2.516 1.037-3.872-0.782-1.355-2.516-1.82-3.871-1.037-1.356 0.783-1.82 2.516-1.038 3.872 0.783 1.355 2.516 1.82 3.872 1.037z" clip-path="url(#clipPath38)"/>
    <path transform="matrix(1.3333 0 0 -1.3333 818.01 277.29)" d="m0 0c-1.356-0.783-3.089-0.318-3.872 1.037-0.782 1.356-0.318 3.089 1.038 3.872 1.355 0.783 3.089 0.318 3.871-1.037 0.783-1.356 0.319-3.089-1.037-3.872z" clip-path="url(#clipPath40)"/>
    <path transform="matrix(1.3333 0 0 -1.3333 468.66 869.29)" d="m0 0c0 1.566 1.269 2.835 2.835 2.835 1.565 0 2.834-1.269 2.834-2.835s-1.269-2.835-2.834-2.835c-1.566 0-2.835 1.269-2.835 2.835z" clip-path="url(#clipPath42)"/>
    <path transform="matrix(1.3333 0 0 -1.3333 1056.6 270.74)" d="m0 0c1.356-0.783 1.82-2.516 1.037-3.872-0.782-1.355-2.516-1.82-3.871-1.037-1.356 0.783-1.82 2.516-1.038 3.872 0.783 1.355 2.516 1.82 3.872 1.037z" clip-path="url(#clipPath44)"/>
    <path transform="matrix(1.3333 0 0 -1.3333 1744 277.29)" d="m0 0c-1.356-0.783-3.089-0.318-3.872 1.037-0.782 1.356-0.318 3.089 1.038 3.872 1.355 0.783 3.089 0.318 3.871-1.037 0.783-1.356 0.319-3.089-1.037-3.872z" clip-path="url(#clipPath46)"/>
    <path transform="matrix(1.3333 0 0 -1.3333 1394.6 869.29)" d="m0 0c0 1.566 1.269 2.835 2.835 2.835 1.565 0 2.834-1.269 2.834-2.835s-1.269-2.835-2.834-2.835c-1.566 0-2.835 1.269-2.835 2.835z" clip-path="url(#clipPath48)"/>
   </g>
   <path transform="matrix(1.3333 0 0 -1.3333 812.6 472.44)" d="m0 0c0-140.9-114.22-255.12-255.12-255.12s-255.12 114.22-255.12 255.12 114.22 255.12 255.12 255.12 255.12-114.22 255.12-255.12z" clip-path="url(#clipPath50)" stroke="#fff" stroke-width="12.926"/>
   <path transform="matrix(1.3333 0 0 -1.3333 746.46 472.44)" d="m0 0c0-113.5-92.011-205.51-205.51-205.51s-205.51 92.011-205.51 205.51 92.011 205.51 205.51 205.51 205.51-92.011 205.51-205.51z" clip-path="url(#clipPath52)" stroke="#fff" stroke-width="12.926"/>
  </g>
 </g>
 <g fill="none" stroke="#000" stroke-miterlimit="10" stroke-width=".5">
  <path transform="matrix(1.3333 0 0 -1.3333 935.43 472.44)" d="m0 0c0-191.78-155.47-347.24-347.24-347.24s-347.24 155.47-347.24 347.24 155.47 347.24 347.24 347.24 347.24-155.47 347.24-347.24z" clip-path="url(#clipPath54)"/>
  <path transform="matrix(1.3333 0 0 -1.3333 405.59 411.52)" d="m0 0c0-6.352-5.15-11.502-11.502-11.502s-11.502 5.15-11.502 11.502 5.15 11.502 11.502 11.502 11.502-5.15 11.502-11.502z" clip-path="url(#clipPath56)"/>
  <path transform="matrix(1.3333 0 0 -1.3333 703.2 382.04)" d="m0 0v54.454l-102.85-102.85-42.899 33.481-53.741-53.497c-15.817-15.817-4.615-42.861 17.753-42.861h159.45l-15.697 12.251h-139.78l8.65 8.627h120.08l-12.55 9.794h-98.018l8.649 8.626h78.316l-0.019 0.015h0.696z" clip-path="url(#clipPath58)"/>
  <path transform="matrix(1.3333 0 0 -1.3333 1861.4 472.44)" d="m0 0c0-191.78-155.47-347.24-347.24-347.24s-347.24 155.47-347.24 347.24 155.47 347.24 347.24 347.24 347.24-155.47 347.24-347.24z" clip-path="url(#clipPath60)"/>
  <path transform="matrix(1.3333 0 0 -1.3333 1450.8 230.25)" d="m0 0h-78.606c-3.131 0-5.669-2.538-5.669-5.669v-45.972h89.944v45.972c0 3.131-2.538 5.669-5.669 5.669z" clip-path="url(#clipPath62)"/>
  <path transform="matrix(1.3333 0 0 -1.3333 1398.4 194.92)" d="m0 0c-7.238 0-14.156-2.98-19.129-8.239l-9.22-9.75h56.698l-9.22 9.75c-4.973 5.259-11.891 8.239-19.129 8.239z" clip-path="url(#clipPath64)"/>
  <path transform="matrix(1.3333 0 0 -1.3333 0 944.88)" d="m1311 347.87h-92.126v12.926h92.126z" clip-path="url(#clipPath66)"/>
  <path transform="matrix(1.3333 0 0 -1.3333 0 944.88)" d="m878.74 347.87h-92.126v12.926h92.126z" clip-path="url(#clipPath68)"/>
  <path transform="matrix(1.3333 0 0 -1.3333 1157.3 725.74)" d="m0 0-9.141 9.141 65.143 65.142 9.141-9.14z" clip-path="url(#clipPath70)"/>
  <path transform="matrix(1.3333 0 0 -1.3333 0 944.88)" d="m1055.3 92.126h-12.926v92.126h12.926z" clip-path="url(#clipPath72)"/>
  <path transform="matrix(1.3333 0 0 -1.3333 1639.5 725.74)" d="m0 0-65.143 65.143 9.141 9.14 65.143-65.142z" clip-path="url(#clipPath74)"/>
  <path transform="matrix(1.3333 0 0 -1.3333 130.65 270.74)" d="m0 0c1.356-0.783 1.82-2.516 1.037-3.872-0.782-1.355-2.516-1.82-3.871-1.037-1.356 0.783-1.82 2.516-1.038 3.872 0.783 1.355 2.516 1.82 3.872 1.037z" clip-path="url(#clipPath76)"/>
  <path transform="matrix(1.3333 0 0 -1.3333 818.01 277.29)" d="m0 0c-1.356-0.783-3.089-0.318-3.872 1.037-0.782 1.356-0.318 3.089 1.038 3.872 1.355 0.783 3.089 0.318 3.871-1.037 0.783-1.356 0.319-3.089-1.037-3.872z" clip-path="url(#clipPath78)"/>
  <path transform="matrix(1.3333 0 0 -1.3333 468.66 869.29)" d="m0 0c0 1.566 1.269 2.835 2.835 2.835 1.565 0 2.834-1.269 2.834-2.835s-1.269-2.835-2.834-2.835c-1.566 0-2.835 1.269-2.835 2.835z" clip-path="url(#clipPath80)"/>
  <path transform="matrix(1.3333 0 0 -1.3333 1056.6 270.74)" d="m0 0c1.356-0.783 1.82-2.516 1.037-3.872-0.782-1.355-2.516-1.82-3.871-1.037-1.356 0.783-1.82 2.516-1.038 3.872 0.783 1.355 2.516 1.82 3.872 1.037z" clip-path="url(#clipPath82)"/>
  <path transform="matrix(1.3333 0 0 -1.3333 1744 277.29)" d="m0 0c-1.356-0.783-3.089-0.318-3.872 1.037-0.782 1.356-0.318 3.089 1.038 3.872 1.355 0.783 3.089 0.318 3.871-1.037 0.783-1.356 0.319-3.089-1.037-3.872z" clip-path="url(#clipPath84)"/>
  <path transform="matrix(1.3333 0 0 -1.3333 1394.6 869.29)" d="m0 0c0 1.566 1.269 2.835 2.835 2.835 1.565 0 2.834-1.269 2.834-2.835s-1.269-2.835-2.834-2.835c-1.566 0-2.835 1.269-2.835 2.835z" clip-path="url(#clipPath86)"/>
  <path transform="matrix(1.3333 0 0 -1.3333 207.04 472.44)" d="m0 0c0 54.878 22.323 104.64 58.366 140.68l-9.136 9.136c-38.383-38.384-62.156-91.377-62.156-149.82h12.926z" clip-path="url(#clipPath88)"/>
  <path transform="matrix(1.3333 0 0 -1.3333 140.9 472.44)" d="m0 0c0 66.418 25.865 128.86 72.83 175.82l-9.14 9.141-1e-3 -1e-3c-49.406-49.406-76.615-115.09-76.615-184.96h12.926z" clip-path="url(#clipPath90)"/>
  <path transform="matrix(1.3333 0 0 -1.3333 359.07 472.44)" d="m0 0c-3.486 11.701-5.749 24.861-5.014 38.516 1.35 25.119 16.34 39.525 41.128 39.525 14.629 0 26.911-4.635 42.395-15.998 9.138-6.707 16.485-12.154 22.408-16.585l9.243 9.242c-6.238 4.677-14.083 10.499-23.996 17.774-17.673 12.972-32.642 18.507-50.05 18.507-27.128 0-46.213-14.609-52.177-38.921h-29.379l27.565-25.943c3e-3 -0.055 8e-3 -0.109 0.011-0.163l-27.576-25.954z" clip-path="url(#clipPath92)"/>
  <path transform="matrix(1.3333 0 0 -1.3333 386.11 529.63)" d="m0 0c-3.929 5.813-13.209 20.74-19.406 40.058h-13.612c6.302-21.738 16.622-38.907 22.296-47.303 10.185-15.072 28.296-31.912 51.446-40.571l10.204 10.204c-23.01 6.703-41.118 23.094-50.928 37.612z" clip-path="url(#clipPath94)"/>
  <path transform="matrix(1.3333 0 0 -1.3333 591.85 541.91)" d="m0 0h-15.933c-15.856-19.778-39.808-31.514-65.964-31.514-6.368 0-12.491 0.817-18.322 2.259l-55.999-55.999 9.148-9.149 51.104 51.104c4.556-0.742 9.248-1.155 14.069-1.155 8.831 0 17.44 1.172 25.665 3.385l-41.821-41.82 9.149-9.149 76.441 76.441-0.028 0.029c4.633 4.701 8.828 9.902 12.491 15.568z" clip-path="url(#clipPath96)"/>
  <path transform="matrix(1.3333 0 0 -1.3333 1518.6 470.55)" d="m0 0c-0.513 17.8-6.177 34.304-15.567 48.077-12.581 21.092-29.571 41.729-29.571 72.006h-12.926c0-56.483 43.569-72.741 45.142-120.08z" clip-path="url(#clipPath98)"/>
  <path transform="matrix(1.3333 0 0 -1.3333 1295.5 470.55)" d="m0 0c1.573 47.342 45.141 63.6 45.141 120.08h-12.926c0-30.277-16.99-50.914-29.571-72.006-9.39-13.773-15.054-30.277-15.567-48.077z" clip-path="url(#clipPath100)"/>
  <path transform="matrix(1.3333 0 0 -1.3333 1396.5 577)" d="m0 0c-41.869 0.76-75.708 34.982-75.813 77.004h-12.928c0.105-49.237 39.669-89.191 88.741-89.948z" clip-path="url(#clipPath102)"/>
  <path transform="matrix(1.3333 0 0 -1.3333 1501.4 474.33)" d="m0 0c-0.105-42.023-33.944-76.244-75.813-77.004v-12.944c49.072 0.757 88.636 40.711 88.74 89.948z" clip-path="url(#clipPath104)"/>
 </g>
</svg>
