<?xml version="1.0" encoding="UTF-8"?><svg xmlns="http://www.w3.org/2000/svg" viewBox="0 0 1920 1080"><defs><style>.c{fill:#f93;}.d{fill:#acbfe5;}.e{fill:#fc9;}</style></defs><g id="a"><rect width="1920" height="1080"/></g><g id="b"><circle class="c" cx="1216.842" cy="447.924" r="437.924"/><path class="d" d="M502.845,540.455c1.152,7.416-5.495,13.7-12.832,12.121-17.313-3.726-35.283-5.243-52.478-5.031-134.058,1.656-240.322,111.376-237.881,245.422,2.386,131.017,109.338,236.492,240.926,236.492h1018.91c106.858,0,193.693-85.727,195.482-192.158,1.828-108.746-86.457-198.719-195.218-198.863-6.759-.009-13.438.325-20.02.986-9.23.927-15.321-9.417-9.872-16.925,18.78-25.877,29.984-57.609,30.355-91.941.945-87.612-71.463-161.134-159.08-161.467-53.712-.204-101.286,26.109-130.386,66.595-5.588,7.775-17.702,4.933-19.263-4.513-25.767-155.912-161.19-274.824-324.405-274.825-181.51,0-328.061,145.89-328.841,327.399-.067,15.631,1.825,38.831,4.602,56.708Z"/><path class="e" d="M863.897,188.644c57.907,7.191,112.773,31.208,157.42,69.437,53.451,45.769,89.169,108.978,100.573,177.983,3.266,19.767,20.181,34.114,40.22,34.113,13.022,0,25.36-6.349,33.003-16.983,24.351-33.877,63.755-54.104,105.404-54.104h.507c34.307.131,66.792,13.995,91.473,39.038,24.696,25.059,38.093,57.77,37.723,92.106-.291,27.027-8.811,52.837-24.636,74.643-9.021,12.434-10.293,28.647-3.321,42.317,7.013,13.75,20.932,22.29,36.324,22.287,1.377,0,2.771-.069,4.146-.208,5.526-.555,11.167-.836,16.765-.836h.22c40.249.053,78.3,14.512,108.447,40.963,6.001-8.05,11.731-16.313,17.178-24.775-33.974-28.717-77.802-46.124-125.586-46.188-6.759-.009-13.438.325-20.02.986-9.23.927-15.321-9.417-9.872-16.925,18.78-25.878,29.984-57.609,30.355-91.941.945-87.612-71.463-161.134-159.08-161.467-53.712-.204-101.286,26.109-130.386,66.595-5.588,7.775-17.702,4.933-19.263-4.513-22.618-136.856-129.728-245.192-265.957-269.633-7.56,8.738-14.775,17.782-21.635,27.104Z"/></g></svg>