<?xml version="1.0" encoding="UTF-8"?><svg xmlns="http://www.w3.org/2000/svg" viewBox="0 0 1920 1080"><defs><style>.c{fill:none;stroke:#39f;stroke-dasharray:14.173 119.055;stroke-linecap:round;stroke-linejoin:round;stroke-width:28.346px;}.d{fill:#acbfe5;}</style></defs><g id="a"><rect width="1920" height="1080"/></g><g id="b"><path class="d" d="M611.328,324.82c.946,6.092-4.514,11.254-10.541,9.957-14.222-3.061-28.983-4.307-43.108-4.132-110.122,1.36-197.411,91.489-195.406,201.601,1.96,107.624,89.816,194.265,197.907,194.265h836.979c87.778,0,159.108-70.42,160.578-157.848,1.502-89.329-71.02-163.237-160.361-163.355-5.552-.007-11.038.267-16.445.81-7.582.761-12.585-7.736-8.109-13.903,15.427-21.257,24.631-47.323,24.935-75.524.777-71.969-58.703-132.363-130.675-132.636-44.122-.168-83.201,21.447-107.105,54.704-4.59,6.387-14.541,4.052-15.824-3.707-21.166-128.074-132.409-225.753-266.481-225.753-149.101,0-269.484,119.841-270.125,268.94-.055,12.84,1.5,31.897,3.781,46.582Z"/><line class="c" x1="1365.828" y1="1049.14" x2="1365.828" y2="759.14"/><line class="c" x1="1162.914" y1="976.64" x2="1162.914" y2="831.64"/><line class="c" x1="960" y1="1049.14" x2="960" y2="759.14"/><line class="c" x1="757.086" y1="976.64" x2="757.086" y2="831.64"/><line class="c" x1="554.172" y1="1049.14" x2="554.172" y2="759.14"/></g></svg>