<?xml version="1.0" encoding="UTF-8"?><svg xmlns="http://www.w3.org/2000/svg" viewBox="0 0 1920 1080"><defs><style>.c{stroke-dasharray:84.282 67.426;}.c,.d,.e{fill:none;stroke:#39f;stroke-linecap:round;stroke-linejoin:round;stroke-width:28.346px;}.f{fill:#acbfe5;}.e{stroke-dasharray:70.866 56.693;}</style></defs><g id="a"><rect width="1920" height="1080"/></g><g id="b"><path class="f" d="M611.328,324.82c.946,6.092-4.514,11.254-10.541,9.957-14.222-3.061-28.983-4.307-43.108-4.132-110.122,1.36-197.411,91.489-195.406,201.601,1.96,107.624,89.816,194.265,197.907,194.265h836.979c87.778,0,159.108-70.42,160.578-157.848,1.502-89.329-71.02-163.237-160.361-163.355-5.552-.007-11.038.267-16.445.81-7.582.761-12.585-7.736-8.109-13.903,15.427-21.257,24.631-47.323,24.935-75.524.777-71.969-58.703-132.363-130.675-132.636-44.122-.168-83.201,21.447-107.105,54.704-4.59,6.387-14.541,4.052-15.824-3.707-21.166-128.074-132.409-225.753-266.481-225.753-149.101,0-269.484,119.841-270.125,268.94-.055,12.84,1.5,31.897,3.781,46.582Z"/><line class="e" x1="1282.019" y1="1040.396" x2="1381.205" y2="767.885"/><line class="d" x1="1180.562" y1="1040.396" x2="1192.681" y2="1007.099"/><line class="c" x1="1215.742" y1="943.74" x2="1256.099" y2="832.861"/><line class="d" x1="1267.629" y1="801.181" x2="1279.748" y2="767.885"/><line class="e" x1="1079.105" y1="1040.395" x2="1178.291" y2="767.885"/><line class="d" x1="977.648" y1="1040.396" x2="989.767" y2="1007.099"/><line class="c" x1="1012.828" y1="943.74" x2="1053.185" y2="832.861"/><line class="d" x1="1064.715" y1="801.181" x2="1076.834" y2="767.885"/><line class="e" x1="876.191" y1="1040.395" x2="975.377" y2="767.885"/><line class="d" x1="774.734" y1="1040.396" x2="786.853" y2="1007.099"/><line class="c" x1="809.914" y1="943.74" x2="850.271" y2="832.861"/><line class="d" x1="861.801" y1="801.181" x2="873.92" y2="767.885"/><line class="e" x1="673.277" y1="1040.395" x2="772.463" y2="767.885"/><line class="d" x1="571.82" y1="1040.396" x2="583.939" y2="1007.099"/><line class="c" x1="607" y1="943.74" x2="647.357" y2="832.86"/><line class="d" x1="658.887" y1="801.181" x2="671.006" y2="767.885"/><line class="e" x1="470.363" y1="1040.395" x2="569.549" y2="767.885"/></g></svg>