<?xml version="1.0" encoding="UTF-8"?><svg xmlns="http://www.w3.org/2000/svg" viewBox="0 0 1920 1080"><defs><style>.c{fill:none;stroke:#39f;stroke-linecap:round;stroke-linejoin:round;stroke-width:28.346px;}.d{fill:#acbfe5;}</style></defs><g id="a"><rect width="1920" height="1080"/></g><g id="b"><path class="d" d="M611.328,324.82c.946,6.092-4.514,11.254-10.541,9.957-14.222-3.061-28.983-4.307-43.108-4.132-110.122,1.36-197.411,91.489-195.406,201.601,1.96,107.624,89.816,194.265,197.907,194.265h836.979c87.778,0,159.108-70.42,160.578-157.848,1.502-89.329-71.02-163.237-160.361-163.355-5.552-.007-11.038.267-16.445.81-7.582.761-12.585-7.736-8.109-13.903,15.427-21.257,24.631-47.323,24.935-75.524.777-71.969-58.703-132.363-130.675-132.636-44.122-.168-83.201,21.447-107.105,54.704-4.59,6.387-14.541,4.052-15.824-3.707-21.166-128.074-132.409-225.753-266.481-225.753-149.101,0-269.484,119.841-270.125,268.94-.055,12.84,1.5,31.897,3.781,46.582Z"/><line class="c" x1="606.233" y1="807.158" x2="507.753" y2="824.523"/><line class="c" x1="589.132" y1="854.143" x2="524.854" y2="777.538"/><line class="c" x1="539.892" y1="862.825" x2="574.094" y2="768.856"/><line class="c" x1="540.664" y1="980.922" x2="442.184" y2="998.287"/><line class="c" x1="523.563" y1="1027.906" x2="459.285" y2="951.302"/><line class="c" x1="474.323" y1="1036.589" x2="508.525" y2="942.62"/><line class="c" x1="809.147" y1="807.158" x2="710.667" y2="824.523"/><line class="c" x1="792.046" y1="854.143" x2="727.768" y2="777.538"/><line class="c" x1="742.806" y1="862.825" x2="777.008" y2="768.856"/><line class="c" x1="743.578" y1="980.922" x2="645.098" y2="998.287"/><line class="c" x1="726.477" y1="1027.906" x2="662.199" y2="951.302"/><line class="c" x1="677.237" y1="1036.589" x2="711.439" y2="942.62"/><line class="c" x1="1012.061" y1="807.158" x2="913.581" y2="824.523"/><line class="c" x1="994.96" y1="854.143" x2="930.682" y2="777.538"/><line class="c" x1="945.72" y1="862.825" x2="979.922" y2="768.856"/><line class="c" x1="946.492" y1="980.922" x2="848.012" y2="998.287"/><line class="c" x1="929.391" y1="1027.906" x2="865.113" y2="951.302"/><line class="c" x1="880.151" y1="1036.589" x2="914.353" y2="942.62"/><line class="c" x1="1214.975" y1="807.158" x2="1116.495" y2="824.523"/><line class="c" x1="1197.874" y1="854.143" x2="1133.596" y2="777.538"/><line class="c" x1="1148.634" y1="862.825" x2="1182.836" y2="768.856"/><line class="c" x1="1149.406" y1="980.922" x2="1050.925" y2="998.287"/><line class="c" x1="1132.305" y1="1027.906" x2="1068.026" y2="951.302"/><line class="c" x1="1083.065" y1="1036.589" x2="1117.267" y2="942.62"/><line class="c" x1="1417.889" y1="807.158" x2="1319.408" y2="824.523"/><line class="c" x1="1400.788" y1="854.143" x2="1336.51" y2="777.538"/><line class="c" x1="1351.548" y1="862.825" x2="1385.75" y2="768.856"/><line class="c" x1="1352.32" y1="980.922" x2="1253.839" y2="998.287"/><line class="c" x1="1335.219" y1="1027.906" x2="1270.94" y2="951.302"/><line class="c" x1="1285.979" y1="1036.589" x2="1320.181" y2="942.62"/></g></svg>