<?xml version="1.0" encoding="UTF-8"?><svg xmlns="http://www.w3.org/2000/svg" xmlns:xlink="http://www.w3.org/1999/xlink" viewBox="0 0 1920 1080"><defs><style>.d{fill:url(#c);}.e{fill:#acbfe5;}</style><linearGradient id="c" x1="1172.153" y1="1067.389" x2="1172.153" y2="605.562" gradientUnits="userSpaceOnUse"><stop offset="0" stop-color="#e65f2e"/><stop offset=".75" stop-color="#e65f2e"/><stop offset="1" stop-color="#acbfe5"/></linearGradient></defs><g id="a"><rect width="1920" height="1080"/></g><g id="b"><path class="e" d="M611.328,324.82c.946,6.092-4.514,11.254-10.541,9.957-14.222-3.061-28.983-4.307-43.108-4.132-110.122,1.36-197.411,91.489-195.406,201.601,1.96,107.624,89.816,194.265,197.907,194.265h836.979c87.778,0,159.108-70.42,160.578-157.848,1.502-89.329-71.02-163.237-160.361-163.355-5.552-.007-11.038.267-16.445.81-7.582.761-12.585-7.736-8.109-13.903,15.427-21.257,24.631-47.323,24.935-75.524.777-71.969-58.703-132.363-130.675-132.636-44.122-.168-83.201,21.447-107.105,54.704-4.59,6.387-14.541,4.052-15.824-3.707-21.166-128.074-132.409-225.753-266.481-225.753-149.101,0-269.484,119.841-270.125,268.94-.055,12.84,1.5,31.897,3.781,46.582Z"/><path class="d" d="M1323.794,792.659l-303.281,274.73,86.264-237.009c2.438-6.697-2.522-13.78-9.649-13.78h-76.615l76.812-211.038h212.277l-63.523,173.295c-2.456,6.701,2.504,13.802,9.641,13.802h68.075Z"/></g></svg>